<svg xmlns="http://www.w3.org/2000/svg" xmlns:xlink="http://www.w3.org/1999/xlink" viewBox="0 0 32 34"><path d="M 10.434 2.783 L 10.434 2.783 C 13.297 2.783 15.428 5.425 14.823 8.222 L 10.434 28.522 L 4.869 28.522 Z" fill="rgb(53,53,53)"></path><path d="M 16.696 13.217 L 16.696 13.217 C 19.547 13.217 21.66 15.864 21.028 18.644 L 18.783 28.522 L 13.218 28.522 Z" fill="rgb(53,53,53)"></path><path d="M 24.348 28.522 C 22.811 28.522 21.565 28.522 21.565 28.522 L 21.565 22.956 C 21.565 22.956 22.811 22.956 24.348 22.956 L 24.348 22.956 C 25.885 22.956 27.131 22.956 27.131 22.956 L 27.131 28.522 C 27.131 28.522 25.885 28.522 24.348 28.522 Z" fill="rgb(53,53,53)"></path></svg>